<svg width="56" height="56" viewBox="0 0 56 56" fill="none" xmlns="http://www.w3.org/2000/svg">
<rect x="4" y="4" width="48" height="48" rx="24" fill="#F38222" fill-opacity="0.05"/>
<rect x="4" y="4" width="48" height="48" rx="24" stroke="#F2994A" stroke-width="8"/>
<path d="M37.2372 21.2885L28.2372 18.2885C28.0832 18.2372 27.9168 18.2372 27.7628 18.2885L18.7628 21.2885C18.6135 21.3383 18.4836 21.4338 18.3915 21.5615C18.2995 21.6892 18.25 21.8426 18.25 22.0001V29.5001C18.25 29.699 18.329 29.8897 18.4697 30.0304C18.6103 30.171 18.8011 30.2501 19 30.2501C19.1989 30.2501 19.3897 30.171 19.5303 30.0304C19.671 29.8897 19.75 29.699 19.75 29.5001V23.0407L22.8991 24.0897C22.0624 25.4414 21.7963 27.0699 22.1593 28.6176C22.5223 30.1653 23.4846 31.5057 24.835 32.3444C23.1475 33.0063 21.6888 34.2035 20.6219 35.8404C20.5664 35.9228 20.5278 36.0155 20.5085 36.113C20.4891 36.2105 20.4894 36.3109 20.5091 36.4083C20.5289 36.5057 20.5678 36.5982 20.6237 36.6804C20.6795 36.7626 20.7512 36.8329 20.8344 36.8872C20.9177 36.9415 21.0109 36.9787 21.1086 36.9967C21.2064 37.0147 21.3067 37.013 21.4039 36.9918C21.501 36.9707 21.5929 36.9304 21.6743 36.8734C21.7557 36.8164 21.825 36.7438 21.8781 36.6597C23.2909 34.4922 25.5222 33.2501 28 33.2501C30.4778 33.2501 32.7091 34.4922 34.1219 36.6597C34.2319 36.8232 34.4018 36.9369 34.5949 36.9761C34.788 37.0153 34.9888 36.9769 35.1539 36.8693C35.3189 36.7616 35.435 36.5933 35.4769 36.4008C35.5189 36.2083 35.4834 36.0069 35.3781 35.8404C34.3112 34.2035 32.8469 33.0063 31.165 32.3444C32.5141 31.5057 33.4755 30.1662 33.8384 28.6196C34.2013 27.0731 33.9361 25.4457 33.1009 24.0944L37.2372 22.7163C37.3866 22.6666 37.5165 22.5711 37.6086 22.4433C37.7006 22.3156 37.7502 22.1622 37.7502 22.0047C37.7502 21.8473 37.7006 21.6939 37.6086 21.5661C37.5165 21.4384 37.3866 21.3429 37.2372 21.2932V21.2885ZM32.5 27.2501C32.5002 27.9615 32.3317 28.6628 32.0084 29.2965C31.6851 29.9302 31.2161 30.4782 30.6399 30.8956C30.0638 31.313 29.3969 31.5878 28.694 31.6975C27.9911 31.8072 27.2722 31.7487 26.5962 31.5268C25.9203 31.3049 25.3066 30.9258 24.8056 30.4208C24.3045 29.9158 23.9303 29.2991 23.7137 28.6215C23.4971 27.9438 23.4442 27.2245 23.5594 26.5225C23.6747 25.8204 23.9547 25.1557 24.3766 24.5829L27.7628 25.7079C27.9168 25.7592 28.0832 25.7592 28.2372 25.7079L31.6234 24.5829C32.1932 25.3554 32.5005 26.2901 32.5 27.2501ZM28 24.2097L21.3719 22.0001L28 19.7904L34.6281 22.0001L28 24.2097Z" fill="#F38222"/>
</svg>
