<svg width="33" height="33" viewBox="0 0 33 33" fill="none" xmlns="http://www.w3.org/2000/svg">
<rect width="33" height="33" fill="#EBF0F6"/>
<g id="Desktop - 1" clip-path="url(#clip0_0_1)">
<rect width="1440" height="4575" transform="translate(-98 -4262)" fill="white"/>
<g id="Frame 3">
<g id="Footer">
<rect width="1440" height="618" transform="translate(-98 -305)" fill="#FEF5ED"/>
<g id="Frame 27">
<g id="Frame 26">
<g id="Container">
<g id="Frame 38">
<g id="Frame 36">
<g id="Frame 37">
<g id="ic:baseline-facebook">
<path id="Vector" d="M30.3107 16.0714C30.3107 8.71137 24.3374 2.73804 16.9774 2.73804C9.61738 2.73804 3.64404 8.71137 3.64404 16.0714C3.64404 22.5247 8.23071 27.898 14.3107 29.138V20.0714H11.644V16.0714H14.3107V12.738C14.3107 10.1647 16.404 8.07137 18.9774 8.07137H22.3107V12.0714H19.644C18.9107 12.0714 18.3107 12.6714 18.3107 13.4047V16.0714H22.3107V20.0714H18.3107V29.338C25.044 28.6714 30.3107 22.9914 30.3107 16.0714Z" fill="#006B3A"/>
</g>
</g>
</g>
</g>
</g>
</g>
</g>
</g>
</g>
</g>
<defs>
<clipPath id="clip0_0_1">
<rect width="1440" height="4575" fill="white" transform="translate(-98 -4262)"/>
</clipPath>
</defs>
</svg>
