<svg width="33" height="33" viewBox="0 0 33 33" fill="none" xmlns="http://www.w3.org/2000/svg">
<path d="M18.3483 2.73919C19.3213 2.73546 20.2943 2.74523 21.267 2.76852L21.5257 2.77786C21.8243 2.78852 22.119 2.80186 22.475 2.81786C23.8937 2.88452 24.8617 3.10852 25.711 3.43786C26.591 3.77652 27.3323 4.23519 28.0737 4.97652C28.7515 5.64266 29.2761 6.44845 29.611 7.33786C29.9403 8.18719 30.1643 9.15652 30.231 10.5752C30.247 10.9299 30.2603 11.2259 30.271 11.5245L30.279 11.7832C30.3027 12.7554 30.3129 13.728 30.3097 14.7005L30.311 15.6952V17.4419C30.3143 18.4148 30.3041 19.3878 30.2803 20.3605L30.2723 20.6192C30.2617 20.9179 30.2483 21.2125 30.2323 21.5685C30.1657 22.9872 29.939 23.9552 29.611 24.8045C29.2772 25.6949 28.7525 26.5013 28.0737 27.1672C27.4069 27.8449 26.6007 28.3695 25.711 28.7045C24.8617 29.0339 23.8937 29.2579 22.475 29.3245C22.119 29.3405 21.8243 29.3539 21.5257 29.3645L21.267 29.3725C20.2943 29.3962 19.3213 29.4064 18.3483 29.4032L17.3537 29.4045H15.6083C14.6353 29.4078 13.6624 29.3976 12.6897 29.3739L12.431 29.3659C12.1145 29.3544 11.798 29.341 11.4817 29.3259C10.063 29.2592 9.09499 29.0325 8.24432 28.7045C7.35457 28.3703 6.54864 27.8456 5.88299 27.1672C5.20438 26.5009 4.67929 25.6946 4.34432 24.8045C4.01499 23.9552 3.79099 22.9872 3.72432 21.5685C3.70947 21.2521 3.69614 20.9357 3.68432 20.6192L3.67766 20.3605C3.65308 19.3878 3.64196 18.4149 3.64432 17.4419V14.7005C3.6406 13.728 3.65038 12.7555 3.67366 11.7832L3.68299 11.5245C3.69366 11.2259 3.70699 10.9299 3.72299 10.5752C3.78966 9.15519 4.01366 8.18852 4.34299 7.33786C4.67815 6.44802 5.20428 5.64245 5.88432 4.97786C6.54952 4.29886 7.35494 3.77329 8.24432 3.43786C9.09499 3.10852 10.0617 2.88452 11.4817 2.81786L12.431 2.77786L12.6897 2.77119C13.6619 2.74662 14.6344 2.73551 15.607 2.73786L18.3483 2.73919ZM16.9777 9.40586C16.0943 9.39336 15.2173 9.55655 14.3976 9.88595C13.5779 10.2153 12.8319 10.7044 12.2028 11.3246C11.5737 11.9448 11.0742 12.6839 10.7332 13.4989C10.3923 14.3138 10.2167 15.1884 10.2167 16.0719C10.2167 16.9553 10.3923 17.8299 10.7332 18.6448C11.0742 19.4598 11.5737 20.1989 12.2028 20.8191C12.8319 21.4394 13.5779 21.9284 14.3976 22.2578C15.2173 22.5872 16.0943 22.7503 16.9777 22.7379C18.7458 22.7379 20.4415 22.0355 21.6917 20.7852C22.9419 19.535 23.6443 17.8393 23.6443 16.0712C23.6443 14.3031 22.9419 12.6074 21.6917 11.3571C20.4415 10.1069 18.7458 9.40586 16.9777 9.40586ZM16.9777 12.0725C17.509 12.0627 18.037 12.1589 18.5307 12.3555C19.0245 12.552 19.4741 12.845 19.8534 13.2172C20.2326 13.5895 20.5339 14.0336 20.7396 14.5236C20.9453 15.0137 21.0513 15.5397 21.0513 16.0712C21.0514 16.6026 20.9456 17.1287 20.7401 17.6188C20.5346 18.1089 20.2334 18.5531 19.8543 18.9255C19.4752 19.2979 19.0256 19.591 18.532 19.7877C18.0383 19.9844 17.5103 20.0808 16.979 20.0712C15.9181 20.0712 14.9007 19.6498 14.1506 18.8996C13.4004 18.1495 12.979 17.1321 12.979 16.0712C12.979 15.0103 13.4004 13.9929 14.1506 13.2428C14.9007 12.4926 15.9181 12.0712 16.979 12.0712L16.9777 12.0725ZM23.9777 7.40586C23.5475 7.42307 23.1407 7.60606 22.8425 7.91648C22.5442 8.22691 22.3776 8.6407 22.3776 9.07119C22.3776 9.50168 22.5442 9.91547 22.8425 10.2259C23.1407 10.5363 23.5475 10.7193 23.9777 10.7365C24.4197 10.7365 24.8436 10.5609 25.1562 10.2484C25.4687 9.93581 25.6443 9.51188 25.6443 9.06986C25.6443 8.62783 25.4687 8.20391 25.1562 7.89134C24.8436 7.57878 24.4197 7.40319 23.9777 7.40319V7.40586Z" fill="#006B3A"/>
</svg>
