<svg width="33" height="33" viewBox="0 0 33 33" fill="none" xmlns="http://www.w3.org/2000/svg">
<path d="M26.3109 4.07129C27.0181 4.07129 27.6964 4.35224 28.1965 4.85234C28.6966 5.35243 28.9775 6.03071 28.9775 6.73796V25.4046C28.9775 26.1119 28.6966 26.7901 28.1965 27.2902C27.6964 27.7903 27.0181 28.0713 26.3109 28.0713H7.64421C6.93696 28.0713 6.25868 27.7903 5.75859 27.2902C5.25849 26.7901 4.97754 26.1119 4.97754 25.4046V6.73796C4.97754 6.03071 5.25849 5.35243 5.75859 4.85234C6.25868 4.35224 6.93696 4.07129 7.64421 4.07129H26.3109ZM25.6442 24.738V17.6713C25.6442 16.5185 25.1863 15.4129 24.3711 14.5977C23.5559 13.7826 22.4503 13.3246 21.2975 13.3246C20.1642 13.3246 18.8442 14.018 18.2042 15.058V13.578H14.4842V24.738H18.2042V18.1646C18.2042 17.138 19.0309 16.298 20.0575 16.298C20.5526 16.298 21.0274 16.4946 21.3775 16.8447C21.7275 17.1948 21.9242 17.6696 21.9242 18.1646V24.738H25.6442ZM10.1509 11.4846C10.745 11.4846 11.3147 11.2486 11.7348 10.8285C12.1549 10.4085 12.3909 9.83871 12.3909 9.24462C12.3909 8.00462 11.3909 6.99129 10.1509 6.99129C9.55325 6.99129 8.98011 7.22869 8.55753 7.65128C8.13494 8.07386 7.89754 8.647 7.89754 9.24462C7.89754 10.4846 8.91087 11.4846 10.1509 11.4846ZM12.0042 24.738V13.578H8.31087V24.738H12.0042Z" fill="#006B3A"/>
</svg>
