<svg width="60" height="60" viewBox="0 0 60 60" fill="none" xmlns="http://www.w3.org/2000/svg">
<rect width="60" height="60" rx="30" fill="white"/>
<rect x="0.5" y="0.5" width="59" height="59" rx="29.5" stroke="#828282" stroke-opacity="0.22"/>
<path fill-rule="evenodd" clip-rule="evenodd" d="M28.6419 39.106C29.1599 39.683 29.8249 40 30.5149 40H30.5159C31.2089 40 31.8769 39.683 32.3959 39.105C32.529 38.9571 32.7154 38.8682 32.9141 38.8578C33.1128 38.8474 33.3075 38.9164 33.4554 39.0495C33.6032 39.1826 33.6922 39.3691 33.7026 39.5678C33.713 39.7664 33.644 39.9611 33.5109 40.109C32.7029 41.006 31.6409 41.5 30.5159 41.5H30.5139C29.3939 41.499 28.3319 41.005 27.5269 40.108C27.4611 40.0348 27.4104 39.9493 27.3776 39.8565C27.3448 39.7637 27.3307 39.6653 27.3359 39.567C27.3412 39.4688 27.3657 39.3725 27.4082 39.2837C27.4506 39.1949 27.5102 39.1153 27.5834 39.0495C27.6566 38.9837 27.7421 38.933 27.8349 38.9002C27.9277 38.8674 28.026 38.8533 28.1243 38.8585C28.2226 38.8638 28.3189 38.8883 28.4077 38.9308C28.4965 38.9733 28.5761 39.0328 28.6419 39.106ZM30.5649 20C35.0099 20 37.9959 23.462 37.9959 26.695C37.9959 28.358 38.4189 29.063 38.8679 29.811C39.3119 30.549 39.8149 31.387 39.8149 32.971C39.4659 37.018 35.2409 37.348 30.5649 37.348C25.8889 37.348 21.6629 37.018 21.3179 33.035C21.3149 31.387 21.8179 30.549 22.2619 29.811L22.4189 29.547C22.8049 28.884 23.1339 28.162 23.1339 26.695C23.1339 23.462 26.1199 20 30.5649 20ZM30.5649 21.5C27.0699 21.5 24.6349 24.238 24.6349 26.695C24.6349 28.774 24.0569 29.735 23.5469 30.583C23.1379 31.264 22.8149 31.802 22.8149 32.971C22.9819 34.857 24.2269 35.848 30.5649 35.848C36.8679 35.848 38.1519 34.813 38.3179 32.906C38.3149 31.802 37.9919 31.264 37.5829 30.583C37.0729 29.735 36.4959 28.774 36.4959 26.695C36.4959 24.238 34.0599 21.5 30.5659 21.5H30.5649Z" fill="#828282"/>
</svg>
