<svg width="10" height="10" viewBox="0 0 10 10" fill="none" xmlns="http://www.w3.org/2000/svg">
<path d="M5 -2.18557e-07C7.76142 -9.78513e-08 10 2.23858 10 5V5C10 7.76142 7.76142 10 5 10V10C2.23858 10 -3.39263e-07 7.76142 -2.18557e-07 5V5C-9.78513e-08 2.23858 2.23858 -3.39263e-07 5 -2.18557e-07V-2.18557e-07Z" fill="#FF6471"/>
<path d="M0.5 5C0.5 2.51472 2.51472 0.5 5 0.5C7.48528 0.5 9.5 2.51472 9.5 5C9.5 7.48528 7.48528 9.5 5 9.5C2.51472 9.5 0.5 7.48528 0.5 5Z" stroke="#828282" stroke-opacity="0.22"/>
</svg>
