<svg width="24" height="25" viewBox="0 0 24 25" fill="none" xmlns="http://www.w3.org/2000/svg">
<g id="ph:student">
<path id="Vector" d="M21.2372 5.78843L12.2372 2.78843C12.0832 2.73711 11.9168 2.73711 11.7628 2.78843L2.76281 5.78843C2.61347 5.83822 2.48358 5.93373 2.39155 6.06144C2.29951 6.18914 2.24999 6.34258 2.25 6.49999V14C2.25 14.1989 2.32902 14.3897 2.46967 14.5303C2.61032 14.671 2.80109 14.75 3 14.75C3.19891 14.75 3.38968 14.671 3.53033 14.5303C3.67098 14.3897 3.75 14.1989 3.75 14V7.54062L6.89906 8.58968C6.0624 9.94137 5.79634 11.5698 6.15931 13.1175C6.52229 14.6652 7.48462 16.0056 8.835 16.8444C7.1475 17.5062 5.68875 18.7034 4.62187 20.3403C4.56639 20.4228 4.52785 20.5154 4.50849 20.6129C4.48914 20.7104 4.48936 20.8108 4.50913 20.9082C4.52891 21.0056 4.56785 21.0981 4.62369 21.1803C4.67953 21.2626 4.75116 21.3329 4.83441 21.3872C4.91766 21.4415 5.01087 21.4787 5.10863 21.4966C5.20639 21.5146 5.30674 21.5129 5.40386 21.4918C5.50097 21.4706 5.59291 21.4304 5.67433 21.3733C5.75575 21.3163 5.82502 21.2437 5.87813 21.1597C7.29094 18.9922 9.52219 17.75 12 17.75C14.4778 17.75 16.7091 18.9922 18.1219 21.1597C18.2319 21.3232 18.4018 21.4368 18.5949 21.476C18.788 21.5152 18.9888 21.4768 19.1539 21.3692C19.3189 21.2615 19.435 21.0933 19.4769 20.9007C19.5189 20.7082 19.4834 20.5069 19.3781 20.3403C18.3112 18.7034 16.8469 17.5062 15.165 16.8444C16.5141 16.0056 17.4755 14.6661 17.8384 13.1196C18.2013 11.573 17.9361 9.94567 17.1009 8.59437L21.2372 7.21624C21.3866 7.16649 21.5165 7.07099 21.6086 6.94328C21.7006 6.81557 21.7502 6.66212 21.7502 6.50468C21.7502 6.34724 21.7006 6.1938 21.6086 6.06609C21.5165 5.93837 21.3866 5.84287 21.2372 5.79312V5.78843ZM16.5 11.75C16.5002 12.4614 16.3317 13.1628 16.0084 13.7965C15.6851 14.4302 15.2161 14.9782 14.6399 15.3955C14.0638 15.8129 13.3969 16.0877 12.694 16.1974C11.9911 16.3072 11.2722 16.2486 10.5962 16.0267C9.92031 15.8048 9.30663 15.4258 8.80555 14.9207C8.30448 14.4157 7.93028 13.7991 7.71367 13.1214C7.49705 12.4438 7.44419 11.7244 7.55942 11.0224C7.67465 10.3204 7.95469 9.65566 8.37656 9.08281L11.7628 10.2078C11.9168 10.2591 12.0832 10.2591 12.2372 10.2078L15.6234 9.08281C16.1932 9.8553 16.5005 10.7901 16.5 11.75ZM12 8.70968L5.37187 6.49999L12 4.29031L18.6281 6.49999L12 8.70968Z" fill="#F38222"/>
</g>
</svg>
