<svg width="33" height="33" viewBox="0 0 33 33" fill="none" xmlns="http://www.w3.org/2000/svg">
<path d="M30.9241 8.07121C29.8974 8.53787 28.7908 8.84454 27.6441 8.99121C28.8174 8.28454 29.7241 7.16454 30.1508 5.81787C29.0441 6.48454 27.8174 6.95121 26.5241 7.21787C25.4708 6.07121 23.9908 5.40454 22.3108 5.40454C19.1774 5.40454 16.6174 7.96454 16.6174 11.1245C16.6174 11.5779 16.6708 12.0179 16.7641 12.4312C12.0174 12.1912 7.79076 9.91121 4.97743 6.45787C4.4841 7.29787 4.2041 8.28454 4.2041 9.32454C4.2041 11.3112 5.2041 13.0712 6.75076 14.0712C5.8041 14.0712 4.9241 13.8045 4.15076 13.4045V13.4445C4.15076 16.2179 6.1241 18.5379 8.73743 19.0579C7.8984 19.2875 7.01756 19.3194 6.1641 19.1512C6.52624 20.2878 7.23548 21.2824 8.19212 21.9951C9.14876 22.7078 10.3047 23.1028 11.4974 23.1245C9.4756 24.7251 6.96942 25.5903 4.39076 25.5779C3.93743 25.5779 3.4841 25.5512 3.03076 25.4979C5.5641 27.1245 8.57743 28.0712 11.8041 28.0712C22.3108 28.0712 28.0841 19.3512 28.0841 11.7912C28.0841 11.5379 28.0841 11.2979 28.0708 11.0445C29.1908 10.2445 30.1508 9.23121 30.9241 8.07121Z" fill="#006B3A"/>
</svg>
