<svg width="33" height="33" viewBox="0 0 33 33" fill="none" xmlns="http://www.w3.org/2000/svg">
<path d="M17.3027 5.40454C18.0147 5.40854 19.796 5.42587 21.6894 5.50187L22.3614 5.53121C24.2667 5.62054 26.1707 5.77521 27.116 6.03787C28.376 6.39254 29.3654 7.42454 29.7 8.73387C30.2334 10.8139 30.3 14.8699 30.308 15.8525L30.3094 16.0552V16.2872C30.3 17.2699 30.2334 21.3272 29.7 23.4059C29.3614 24.7192 28.3707 25.7525 27.116 26.1019C26.1707 26.3645 24.2667 26.5192 22.3614 26.6085L21.6894 26.6392C19.796 26.7139 18.0147 26.7325 17.3027 26.7352L16.9894 26.7365H16.6494C15.1427 26.7272 8.84138 26.6592 6.83604 26.1019C5.57738 25.7472 4.58671 24.7152 4.25204 23.4059C3.71871 21.3259 3.65204 17.2699 3.64404 16.2872V15.8525C3.65204 14.8699 3.71871 10.8125 4.25204 8.73387C4.59071 7.42054 5.58138 6.38721 6.83738 6.03921C8.84138 5.48054 15.144 5.41254 16.6507 5.40454H17.3027ZM14.3094 11.4045V20.7379L22.3094 16.0712L14.3094 11.4045Z" fill="#006B3A"/>
</svg>
